{
  "accessors": [
    {
      "bufferView": 1,
      "componentType": 5126,
      "count": 6443,
      "max": [
        110.4251937866211,
        129.04600524902344,
        -0.00034332275390625
      ],
      "min": [
        0.0,
        0.0,
        -80.0840072631836
      ],
      "type": "VEC3"
    },
    {
      "bufferView": 1,
      "byteOffset": 77316,
      "componentType": 5126,
      "count": 6443,
      "max": [
        1.0,
        1.0,
        1.0
      ],
      "min": [
        -1.0,
        -1.0,
        -1.0
      ],
      "type": "VEC3"
    },
    {
      "bufferView": 0,
      "componentType": 5125,
      "count": 19500,
      "type": "SCALAR"
    },
    {
      "bufferView": 1,
      "byteOffset": 154632,
      "componentType": 5126,
      "count": 761,
      "max": [
        34.971099853515625,
        1.5012054443359375,
        31.433597564697266
      ],
      "min": [
        -34.97100830078125,
        -1.5000338554382324,
        -38.28651809692383
      ],
      "type": "VEC3"
    },
    {
      "bufferView": 1,
      "byteOffset": 163764,
      "componentType": 5126,
      "count": 761,
      "max": [
        1.0,
        1.0,
        1.0
      ],
      "min": [
        -1.0,
        -1.0,
        -0.9997119903564453
      ],
      "type": "VEC3"
    },
    {
      "bufferView": 0,
      "byteOffset": 78000,
      "componentType": 5125,
      "count": 924,
      "type": "SCALAR"
    },
    {
      "bufferView": 1,
      "byteOffset": 172896,
      "componentType": 5126,
      "count": 24312,
      "max": [
        191.74057006835938,
        57.193206787109375,
        5.947414398193359
      ],
      "min": [
        139.77037048339844,
        1.6932849884033203,
        -50.1413688659668
      ],
      "type": "VEC3"
    },
    {
      "bufferView": 1,
      "byteOffset": 464640,
      "componentType": 5126,
      "count": 24312,
      "max": [
        0.9998199343681335,
        0.999579906463623,
        0.9996988773345947
      ],
      "min": [
        -0.9998396635055542,
        -0.999581515789032,
        -0.9998738169670105
      ],
      "type": "VEC3"
    },
    {
      "bufferView": 0,
      "byteOffset": 81696,
      "componentType": 5125,
      "count": 24312,
      "type": "SCALAR"
    },
    {
      "bufferView": 1,
      "byteOffset": 756384,
      "componentType": 5126,
      "count": 579,
      "max": [
        130.14117431640625,
        42.61697769165039,
        -38.819095611572266
      ],
      "min": [
        114.30679321289063,
        24.039587020874023,
        -44.93104934692383
      ],
      "type": "VEC3"
    },
    {
      "bufferView": 1,
      "byteOffset": 763332,
      "componentType": 5126,
      "count": 579,
      "max": [
        0.9962353110313416,
        1.0,
        1.0
      ],
      "min": [
        -0.997946560382843,
        -0.9999988675117493,
        -0.9943296909332275
      ],
      "type": "VEC3"
    },
    {
      "bufferView": 0,
      "byteOffset": 178944,
      "componentType": 5125,
      "count": 618,
      "type": "SCALAR"
    },
    {
      "bufferView": 1,
      "byteOffset": 770280,
      "componentType": 5126,
      "count": 1602,
      "max": [
        267.9166564941406,
        96.66317749023438,
        54.9234733581543
      ],
      "min": [
        262.1446228027344,
        76.8412857055664,
        35.023841857910156
      ],
      "type": "VEC3"
    },
    {
      "bufferView": 1,
      "byteOffset": 789504,
      "componentType": 5126,
      "count": 1602,
      "max": [
        1.0,
        0.9980580806732178,
        0.9992583990097046
      ],
      "min": [
        -1.0,
        -0.9958018660545349,
        -0.9998441934585571
      ],
      "type": "VEC3"
    },
    {
      "bufferView": 0,
      "byteOffset": 181416,
      "componentType": 5125,
      "count": 1644,
      "type": "SCALAR"
    },
    {
      "bufferView": 1,
      "byteOffset": 808728,
      "componentType": 5126,
      "count": 1586,
      "max": [
        245.3182830810547,
        93.73670196533203,
        52.3306884765625
      ],
      "min": [
        239.7673797607422,
        74.05229949951172,
        32.1977424621582
      ],
      "type": "VEC3"
    },
    {
      "bufferView": 1,
      "byteOffset": 827760,
      "componentType": 5126,
      "count": 1586,
      "max": [
        1.0,
        0.9999685883522034,
        0.9999484419822693
      ],
      "min": [
        -0.9996485114097595,
        -0.9997575879096985,
        -0.9995347261428833
      ],
      "type": "VEC3"
    },
    {
      "bufferView": 0,
      "byteOffset": 187992,
      "componentType": 5125,
      "count": 1626,
      "type": "SCALAR"
    },
    {
      "bufferView": 1,
      "byteOffset": 846792,
      "componentType": 5126,
      "count": 3826,
      "max": [
        407.6985778808594,
        103.38978576660156,
        65.63201141357422
      ],
      "min": [
        362.3045959472656,
        84.97505950927734,
        47.596885681152344
      ],
      "type": "VEC3"
    },
    {
      "bufferView": 1,
      "byteOffset": 892704,
      "componentType": 5126,
      "count": 3826,
      "max": [
        1.0,
        0.9993321895599365,
        0.9945140480995178
      ],
      "min": [
        -1.0,
        -0.9983225464820862,
        -1.0
      ],
      "type": "VEC3"
    },
    {
      "bufferView": 0,
      "byteOffset": 194496,
      "componentType": 5125,
      "count": 4032,
      "type": "SCALAR"
    },
    {
      "bufferView": 1,
      "byteOffset": 938616,
      "componentType": 5126,
      "count": 9841,
      "max": [
        339.92889404296875,
        107.454345703125,
        60.49762725830078
      ],
      "min": [
        297.7788391113281,
        59.97142791748047,
        21.535724639892578
      ],
      "type": "VEC3"
    },
    {
      "bufferView": 1,
      "byteOffset": 1056708,
      "componentType": 5126,
      "count": 9841,
      "max": [
        1.0,
        0.9998016953468323,
        1.0
      ],
      "min": [
        -1.0,
        -0.9999688863754272,
        -0.9999505877494812
      ],
      "type": "VEC3"
    },
    {
      "bufferView": 0,
      "byteOffset": 210624,
      "componentType": 5125,
      "count": 10035,
      "type": "SCALAR"
    },
    {
      "bufferView": 1,
      "byteOffset": 1174800,
      "componentType": 5126,
      "count": 310,
      "max": [
        435.1533508300781,
        103.97506713867188,
        102.16736602783203
      ],
      "min": [
        424.3790588378906,
        91.06057739257813,
        90.79634094238281
      ],
      "type": "VEC3"
    },
    {
      "bufferView": 1,
      "byteOffset": 1178520,
      "componentType": 5126,
      "count": 310,
      "max": [
        0.7209389209747314,
        0.931572675704956,
        0.7720792293548584
      ],
      "min": [
        -0.7153965830802917,
        -0.9366682171821594,
        -0.774814248085022
      ],
      "type": "VEC3"
    },
    {
      "bufferView": 0,
      "byteOffset": 250764,
      "componentType": 5125,
      "count": 336,
      "type": "SCALAR"
    },
    {
      "bufferView": 1,
      "byteOffset": 1182240,
      "componentType": 5126,
      "count": 282,
      "max": [
        428.51812744140625,
        88.03665924072266,
        51.35623550415039
      ],
      "min": [
        417.7313232421875,
        75.15522003173828,
        40.024532318115234
      ],
      "type": "VEC3"
    },
    {
      "bufferView": 1,
      "byteOffset": 1185624,
      "componentType": 5126,
      "count": 282,
      "max": [
        0.7197070121765137,
        0.935048520565033,
        0.7768406271934509
      ],
      "min": [
        -0.7149782180786133,
        -0.9362339973449707,
        -0.7773960828781128
      ],
      "type": "VEC3"
    },
    {
      "bufferView": 0,
      "byteOffset": 252108,
      "componentType": 5125,
      "count": 300,
      "type": "SCALAR"
    },
    {
      "bufferView": 1,
      "byteOffset": 1189008,
      "componentType": 5126,
      "count": 1579,
      "max": [
        180.28953552246094,
        88.98553466796875,
        70.77147674560547
      ],
      "min": [
        168.30172729492188,
        80.04608154296875,
        64.58988952636719
      ],
      "type": "VEC3"
    },
    {
      "bufferView": 1,
      "byteOffset": 1207956,
      "componentType": 5126,
      "count": 1579,
      "max": [
        0.9970228672027588,
        0.9999823570251465,
        0.9958492517471313
      ],
      "min": [
        -0.999171793460846,
        -0.9984501004219055,
        -1.0
      ],
      "type": "VEC3"
    },
    {
      "bufferView": 0,
      "byteOffset": 253308,
      "componentType": 5125,
      "count": 1614,
      "type": "SCALAR"
    },
    {
      "bufferView": 1,
      "byteOffset": 1226904,
      "componentType": 5126,
      "count": 2721,
      "max": [
        125.15794372558594,
        68.72980499267578,
        0.00818634033203125
      ],
      "min": [
        -4.046004772186279,
        -0.06383045762777328,
        -99.55843353271484
      ],
      "type": "VEC3"
    },
    {
      "bufferView": 1,
      "byteOffset": 1259556,
      "componentType": 5126,
      "count": 2721,
      "max": [
        1.0,
        1.0,
        1.0
      ],
      "min": [
        -1.0,
        -1.0,
        -1.0
      ],
      "type": "VEC3"
    },
    {
      "bufferView": 0,
      "byteOffset": 259764,
      "componentType": 5125,
      "count": 2754,
      "type": "SCALAR"
    },
    {
      "bufferView": 1,
      "byteOffset": 1292208,
      "componentType": 5126,
      "count": 12648,
      "max": [
        117.6180648803711,
        15.85004997253418,
        -21.537944793701172
      ],
      "min": [
        87.03733825683594,
        3.814697265625e-06,
        -83.91394805908203
      ],
      "type": "VEC3"
    },
    {
      "bufferView": 1,
      "byteOffset": 1443984,
      "componentType": 5126,
      "count": 12648,
      "max": [
        0.9999668598175049,
        0.9999362230300903,
        0.9999690651893616
      ],
      "min": [
        -0.9999963641166687,
        -1.0,
        -0.9998193979263306
      ],
      "type": "VEC3"
    },
    {
      "bufferView": 0,
      "byteOffset": 270780,
      "componentType": 5125,
      "count": 12696,
      "type": "SCALAR"
    },
    {
      "bufferView": 1,
      "byteOffset": 1595760,
      "componentType": 5126,
      "count": 5008,
      "max": [
        220.48580932617188,
        97.61763000488281,
        86.33655548095703
      ],
      "min": [
        185.06527709960938,
        61.76079559326172,
        49.1071662902832
      ],
      "type": "VEC3"
    },
    {
      "bufferView": 1,
      "byteOffset": 1655856,
      "componentType": 5126,
      "count": 5008,
      "max": [
        0.9991692900657654,
        0.9984532594680786,
        1.0
      ],
      "min": [
        -0.998694896697998,
        -0.9999333620071411,
        -1.0
      ],
      "type": "VEC3"
    },
    {
      "bufferView": 0,
      "byteOffset": 321564,
      "componentType": 5125,
      "count": 5154,
      "type": "SCALAR"
    }
  ],
  "asset": {
    "extras": {
      "author": "EggMan28 (https://sketchfab.com/EggMan28)",
      "license": "CC-BY-4.0 (http://creativecommons.org/licenses/by/4.0/)",
      "source": "https://sketchfab.com/3d-models/snoopy-red-baron-6635644bbefc45da8b5b80ba45361408",
      "title": "Snoopy Red Baron"
    },
    "generator": "Sketchfab-15.15.0",
    "version": "2.0"
  },
  "bufferViews": [
    {
      "buffer": 0,
      "byteLength": 342180,
      "name": "floatBufferViews",
      "target": 34963
    },
    {
      "buffer": 0,
      "byteLength": 1715952,
      "byteOffset": 342180,
      "byteStride": 12,
      "name": "floatBufferViews",
      "target": 34962
    }
  ],
  "buffers": [
    {
      "byteLength": 2058132,
      "uri": "scene.bin"
    }
  ],
  "materials": [
    {
      "doubleSided": true,
      "name": "material_0",
      "pbrMetallicRoughness": {
        "metallicFactor": 0.0,
        "roughnessFactor": 0.6
      }
    },
    {
      "doubleSided": true,
      "name": "material",
      "pbrMetallicRoughness": {
        "baseColorFactor": [
          0.8,
          0.0013537,
          0.0137095,
          1.0
        ],
        "metallicFactor": 0.0,
        "roughnessFactor": 0.5
      }
    },
    {
      "doubleSided": true,
      "name": "Black",
      "pbrMetallicRoughness": {
        "baseColorFactor": [
          0.0036421,
          0.0036421,
          0.0036421,
          1.0
        ],
        "metallicFactor": 0.0,
        "roughnessFactor": 0.5
      }
    },
    {
      "doubleSided": true,
      "name": "Copper",
      "pbrMetallicRoughness": {
        "baseColorFactor": [
          0.220252,
          0.134391,
          0.0603293,
          1.0
        ],
        "metallicFactor": 0.0,
        "roughnessFactor": 0.5
      }
    },
    {
      "doubleSided": true,
      "name": "Brown",
      "pbrMetallicRoughness": {
        "baseColorFactor": [
          0.0985043,
          0.0486743,
          0.0274643,
          1.0
        ],
        "metallicFactor": 0.0,
        "roughnessFactor": 0.5
      }
    }
  ],
  "meshes": [
    {
      "name": "Object_0",
      "primitives": [
        {
          "attributes": {
            "NORMAL": 1,
            "POSITION": 0
          },
          "indices": 2,
          "material": 1,
          "mode": 4
        }
      ]
    },
    {
      "name": "Object_1",
      "primitives": [
        {
          "attributes": {
            "NORMAL": 4,
            "POSITION": 3
          },
          "indices": 5,
          "material": 2,
          "mode": 4
        }
      ]
    },
    {
      "name": "Object_2",
      "primitives": [
        {
          "attributes": {
            "NORMAL": 7,
            "POSITION": 6
          },
          "indices": 8,
          "material": 0,
          "mode": 4
        }
      ]
    },
    {
      "name": "Object_3",
      "primitives": [
        {
          "attributes": {
            "NORMAL": 10,
            "POSITION": 9
          },
          "indices": 11,
          "material": 2,
          "mode": 4
        }
      ]
    },
    {
      "name": "Object_4",
      "primitives": [
        {
          "attributes": {
            "NORMAL": 13,
            "POSITION": 12
          },
          "indices": 14,
          "material": 3,
          "mode": 4
        }
      ]
    },
    {
      "name": "Object_5",
      "primitives": [
        {
          "attributes": {
            "NORMAL": 16,
            "POSITION": 15
          },
          "indices": 17,
          "material": 3,
          "mode": 4
        }
      ]
    },
    {
      "name": "Object_6",
      "primitives": [
        {
          "attributes": {
            "NORMAL": 19,
            "POSITION": 18
          },
          "indices": 20,
          "material": 3,
          "mode": 4
        }
      ]
    },
    {
      "name": "Object_7",
      "primitives": [
        {
          "attributes": {
            "NORMAL": 22,
            "POSITION": 21
          },
          "indices": 23,
          "material": 4,
          "mode": 4
        }
      ]
    },
    {
      "name": "Object_8",
      "primitives": [
        {
          "attributes": {
            "NORMAL": 25,
            "POSITION": 24
          },
          "indices": 26,
          "material": 2,
          "mode": 4
        }
      ]
    },
    {
      "name": "Object_9",
      "primitives": [
        {
          "attributes": {
            "NORMAL": 28,
            "POSITION": 27
          },
          "indices": 29,
          "material": 2,
          "mode": 4
        }
      ]
    },
    {
      "name": "Object_10",
      "primitives": [
        {
          "attributes": {
            "NORMAL": 31,
            "POSITION": 30
          },
          "indices": 32,
          "material": 2,
          "mode": 4
        }
      ]
    },
    {
      "name": "Object_11",
      "primitives": [
        {
          "attributes": {
            "NORMAL": 34,
            "POSITION": 33
          },
          "indices": 35,
          "material": 1,
          "mode": 4
        }
      ]
    },
    {
      "name": "Object_12",
      "primitives": [
        {
          "attributes": {
            "NORMAL": 37,
            "POSITION": 36
          },
          "indices": 38,
          "material": 1,
          "mode": 4
        }
      ]
    },
    {
      "name": "Object_13",
      "primitives": [
        {
          "attributes": {
            "NORMAL": 40,
            "POSITION": 39
          },
          "indices": 41,
          "material": 0,
          "mode": 4
        }
      ]
    }
  ],
  "nodes": [
    {
      "children": [
        1
      ],
      "matrix": [
        1.0,
        0.0,
        0.0,
        0.0,
        0.0,
        2.220446049250313e-16,
        -1.0,
        0.0,
        0.0,
        1.0,
        2.220446049250313e-16,
        0.0,
        0.0,
        0.0,
        0.0,
        1.0
      ],
      "name": "Sketchfab_model"
    },
    {
      "children": [
        2
      ],
      "name": "root"
    },
    {
      "children": [
        3,
        5,
        7,
        9,
        11,
        13,
        15,
        17,
        19,
        21,
        23,
        25,
        27,
        29
      ],
      "matrix": [
        1.0,
        0.0,
        0.0,
        0.0,
        0.0,
        2.220446049250313e-16,
        1.0,
        0.0,
        0.0,
        -1.0,
        2.220446049250313e-16,
        0.0,
        0.0,
        0.0,
        0.0,
        1.0
      ],
      "name": "GLTF_SceneRootNode"
    },
    {
      "children": [
        4
      ],
      "matrix": [
        0.050000011920928955,
        0.0,
        0.0,
        0.0,
        0.0,
        0.050000011920928955,
        0.0,
        0.0,
        0.0,
        0.0,
        0.050000011920928955,
        0.0,
        -2.721970558166504,
        -1.50667142868042,
        1.14178466796875,
        1.0
      ],
      "name": "Snoopy house base v1_0"
    },
    {
      "mesh": 0,
      "name": "Object_4"
    },
    {
      "children": [
        6
      ],
      "matrix": [
        0.050000011920928955,
        0.0,
        0.0,
        0.0,
        0.0,
        0.0,
        0.050000011920928955,
        0.0,
        0.0,
        -0.050000011920928955,
        0.0,
        0.0,
        0.044386863708496094,
        0.14976167678833008,
        1.03466796875,
        1.0
      ],
      "name": "Snoopy house door v1_1"
    },
    {
      "mesh": 1,
      "name": "Object_6"
    },
    {
      "children": [
        8
      ],
      "matrix": [
        0.050000011920928955,
        0.0,
        0.0,
        0.0,
        0.0,
        0.03801620805905254,
        0.03247720919204521,
        0.0,
        0.0,
        -0.03247720919204521,
        0.03801620805905254,
        0.0,
        -8.166642189025879,
        3.9602932929992676,
        -0.6414337158203125,
        1.0
      ],
      "name": "Snoopy vs Red Baron-Body angle_2"
    },
    {
      "mesh": 2,
      "name": "Object_8"
    },
    {
      "children": [
        10
      ],
      "matrix": [
        0.050000011920928955,
        0.0,
        0.0,
        0.0,
        0.0,
        0.050000011920928955,
        0.0,
        0.0,
        0.0,
        0.0,
        0.050000011920928955,
        0.0,
        -5.984330177307129,
        4.312244892120361,
        0.49517822265625,
        1.0
      ],
      "name": "Snoopy vs Red Baron-Body Spot_3"
    },
    {
      "mesh": 3,
      "name": "Object_10"
    },
    {
      "children": [
        12
      ],
      "matrix": [
        0.050000011920928955,
        0.0,
        0.0,
        0.0,
        0.0,
        0.050000011920928955,
        0.0,
        0.0,
        0.0,
        0.0,
        0.050000011920928955,
        0.0,
        -12.178879737854004,
        3.8746228218078613,
        -3.5978240966796875,
        1.0
      ],
      "name": "Snoopy vs Red Baron-Ear Cap L_4"
    },
    {
      "mesh": 4,
      "name": "Object_12"
    },
    {
      "children": [
        14
      ],
      "matrix": [
        0.050000011920928955,
        0.0,
        0.0,
        0.0,
        0.0,
        0.050000011920928955,
        0.0,
        0.0,
        0.0,
        0.0,
        0.050000011920928955,
        0.0,
        -13.024064064025879,
        3.9274487495422363,
        -3.46978759765625,
        1.0
      ],
      "name": "Snoopy vs Red Baron-Ear Cap R_5"
    },
    {
      "mesh": 5,
      "name": "Object_14"
    },
    {
      "children": [
        16
      ],
      "matrix": [
        0.050000011920928955,
        0.0,
        0.0,
        0.0,
        0.0,
        0.050000011920928955,
        0.0,
        0.0,
        0.0,
        0.0,
        0.050000011920928955,
        0.0,
        -19.190567016601563,
        4.014973163604736,
        -3.473052978515625,
        1.0
      ],
      "name": "Snoopy vs Red Baron-Goggles_6"
    },
    {
      "mesh": 6,
      "name": "Object_16"
    },
    {
      "children": [
        18
      ],
      "matrix": [
        0.050000011920928955,
        0.0,
        0.0,
        0.0,
        0.0,
        0.050000011920928955,
        0.0,
        0.0,
        0.0,
        0.0,
        0.050000011920928955,
        0.0,
        -15.886094093322754,
        4.001278400421143,
        -3.4437408447265625,
        1.0
      ],
      "name": "Snoopy vs Red Baron-Hat_7"
    },
    {
      "mesh": 7,
      "name": "Object_18"
    },
    {
      "children": [
        20
      ],
      "matrix": [
        0.050000011920928955,
        0.0,
        0.0,
        0.0,
        0.0,
        0.050000011920928955,
        0.0,
        0.0,
        0.0,
        0.0,
        0.050000011920928955,
        0.0,
        -20.650741577148438,
        3.879711627960205,
        -5.383636474609375,
        1.0
      ],
      "name": "Snoopy vs Red Baron-Lens L_8"
    },
    {
      "mesh": 8,
      "name": "Object_20"
    },
    {
      "children": [
        22
      ],
      "matrix": [
        0.050000011920928955,
        0.0,
        0.0,
        0.0,
        0.0,
        0.050000011920928955,
        0.0,
        0.0,
        0.0,
        0.0,
        0.050000011920928955,
        0.0,
        -21.903305053710938,
        4.66819429397583,
        -2.8847808837890625,
        1.0
      ],
      "name": "Snoopy vs Red Baron-Lens R_9"
    },
    {
      "mesh": 9,
      "name": "Object_22"
    },
    {
      "children": [
        24
      ],
      "matrix": [
        0.050000011920928955,
        0.0,
        0.0,
        0.0,
        0.0,
        0.050000011920928955,
        0.0,
        0.0,
        0.0,
        0.0,
        0.050000011920928955,
        0.0,
        -8.625229835510254,
        3.8822598457336426,
        -2.5687255859375,
        1.0
      ],
      "name": "Snoopy vs Red Baron-Nose_10"
    },
    {
      "mesh": 10,
      "name": "Object_24"
    },
    {
      "children": [
        26
      ],
      "matrix": [
        0.050000011920928955,
        0.0,
        0.0,
        0.0,
        0.0,
        0.050000011920928955,
        0.0,
        0.0,
        0.0,
        0.0,
        0.050000011920928955,
        0.0,
        -2.906998634338379,
        1.7594342231750488,
        1.479644775390625,
        1.0
      ],
      "name": "Snoopy vs Red Baron-Roof_11"
    },
    {
      "mesh": 11,
      "name": "Object_26"
    },
    {
      "children": [
        28
      ],
      "matrix": [
        0.050000011920928955,
        0.0,
        0.0,
        0.0,
        0.0,
        0.050000011920928955,
        0.0,
        0.0,
        0.0,
        0.0,
        0.050000011920928955,
        0.0,
        -5.022538185119629,
        6.431766986846924,
        0.516082763671875,
        1.0
      ],
      "name": "Snoopy vs Red Baron-Scarf_12"
    },
    {
      "mesh": 12,
      "name": "Object_28"
    },
    {
      "children": [
        30
      ],
      "matrix": [
        0.050000011920928955,
        0.0,
        0.0,
        0.0,
        0.0,
        0.050000011920928955,
        0.0,
        0.0,
        0.0,
        0.0,
        0.050000011920928955,
        0.0,
        -10.043717384338379,
        4.007221698760986,
        -3.5509033203125,
        1.0
      ],
      "name": "Snoopy vs Red Baron-Snout_13"
    },
    {
      "mesh": 13,
      "name": "Object_30"
    }
  ],
  "scene": 0,
  "scenes": [
    {
      "name": "Sketchfab_Scene",
      "nodes": [
        0
      ]
    }
  ]
}
